<?xml version="1.0" standalone="no"?>
<!DOCTYPE svg PUBLIC "-//W3C//DTD SVG 20010904//EN"
 "http://www.w3.org/TR/2001/REC-SVG-20010904/DTD/svg10.dtd">
<svg version="1.0" xmlns="http://www.w3.org/2000/svg"
 width="512.000000pt" height="512.000000pt" viewBox="0 0 512.000000 512.000000"
 preserveAspectRatio="xMidYMid meet">
<metadata>
Created by potrace 1.14, written by Peter Selinger 2001-2017
</metadata>
<g transform="translate(0.000000,512.000000) scale(0.100000,-0.100000)"
fill="#000000" stroke="none">
<path d="M1619 3971 c-55 -34 -114 -119 -159 -228 -18 -43 -34 -79 -35 -81 -2
-2 -18 6 -36 17 -45 27 -83 26 -133 -3 -64 -38 -141 -160 -181 -288 -17 -53
-19 -56 -42 -45 -75 34 -160 -119 -200 -365 l-16 -98 -153 0 c-84 0 -165 -5
-181 -11 -109 -41 -182 -220 -155 -379 20 -116 82 -212 155 -239 16 -6 97 -11
181 -11 l153 0 16 -97 c40 -247 125 -400 200 -366 23 11 25 8 42 -45 40 -128
117 -250 181 -288 50 -29 88 -30 133 -3 18 11 34 19 36 17 1 -2 17 -38 35 -81
45 -109 104 -194 159 -228 55 -35 82 -36 137 -4 134 79 253 401 309 838 18
143 19 179 3 195 -8 8 -60 12 -169 12 l-157 0 -30 34 c-109 124 -109 548 0
672 l30 34 157 0 c109 0 161 4 169 12 16 16 15 52 -3 195 -56 437 -175 759
-309 838 -55 32 -82 31 -137 -4z"/>
<path d="M3363 3975 c-196 -118 -343 -724 -343 -1415 0 -692 148 -1300 344
-1415 55 -32 82 -31 137 4 55 34 114 119 159 228 18 43 34 79 35 81 2 2 18 -6
36 -17 45 -27 83 -26 133 3 64 38 141 160 181 288 17 53 19 56 42 45 75 -34
160 119 200 366 l16 97 153 0 c84 0 165 5 181 11 73 27 135 123 155 239 27
159 -46 338 -155 379 -16 6 -97 11 -181 11 l-153 0 -16 98 c-40 246 -125 399
-200 365 -23 -11 -25 -8 -42 45 -40 128 -117 250 -181 288 -50 29 -88 30 -133
3 -18 -11 -34 -19 -36 -17 -1 2 -17 38 -35 81 -45 109 -104 194 -159 228 -55
35 -84 36 -138 4z"/>
<path d="M1718 2834 c-27 -61 -47 -180 -47 -274 0 -94 20 -213 47 -274 l21
-46 623 0 623 0 0 320 0 320 -623 0 -623 0 -21 -46z"/>
</g>
</svg>
